<svg width="89" height="101" viewBox="0 0 89 101" fill="none" xmlns="http://www.w3.org/2000/svg">
<path d="M88.1749 0.5L80.142 90.4895L44.0335 100.5L8.02445 90.5036L0 0.5H88.1749Z" fill="#264DE4"/>
<path d="M73.2649 84.7593L80.1296 7.85913H44.0875V92.8484L73.2649 84.7593Z" fill="#2965F1"/>
<path d="M18.3959 41.2402L19.3853 52.2787H44.0875V41.2402H18.3959Z" fill="#EBEBEB"/>
<path d="M44.0875 18.8977H44.0493H16.408L17.4114 29.9364H44.0875V18.8977Z" fill="#EBEBEB"/>
<path d="M44.0875 81.3931V69.9083L44.0391 69.9212L31.7453 66.6016L30.9594 57.7979H24.9857H19.8784L21.425 75.13L44.0366 81.4072L44.0875 81.3931Z" fill="#EBEBEB"/>
<path d="M57.6421 52.2785L56.3608 66.5947L44.0493 69.9177V81.4019L66.679 75.1301L66.845 73.2652L69.439 44.2042L69.7083 41.2401L71.7011 18.8977H44.0493V29.9364H59.6038L58.5994 41.2401H44.0493V52.2785H57.6421Z" fill="white"/>
</svg>
