<svg width="101" height="101" viewBox="0 0 101 101" fill="none" xmlns="http://www.w3.org/2000/svg">
<path d="M33.4816 100.5C42.6816 100.5 50.1483 93.0334 50.1483 83.8334V67.1667H33.4816C24.2816 67.1667 16.8149 74.6334 16.8149 83.8334C16.8149 93.0334 24.2816 100.5 33.4816 100.5Z" fill="#0ACF83"/>
<path d="M16.8149 50.4999C16.8149 41.2999 24.2816 33.8333 33.4816 33.8333H50.1483V67.1665H33.4816C24.2816 67.1665 16.8149 59.6999 16.8149 50.4999Z" fill="#A259FF"/>
<path d="M16.8149 17.1667C16.8149 7.96666 24.2816 0.5 33.4816 0.5H50.1483V33.8333H33.4816C24.2816 33.8333 16.8149 26.3667 16.8149 17.1667Z" fill="#F24E1E"/>
<path d="M50.1482 0.5H66.8149C76.0149 0.5 83.4816 7.96666 83.4816 17.1667C83.4816 26.3667 76.0149 33.8333 66.8149 33.8333H50.1482V0.5Z" fill="#FF7262"/>
<path d="M83.4816 50.4999C83.4816 59.6999 76.0149 67.1665 66.8149 67.1665C57.6149 67.1665 50.1482 59.6999 50.1482 50.4999C50.1482 41.2999 57.6149 33.8333 66.8149 33.8333C76.0149 33.8333 83.4816 41.2999 83.4816 50.4999Z" fill="#1ABCFE"/>
</svg>
