<svg width="101" height="101" viewBox="0 0 101 101" fill="none" xmlns="http://www.w3.org/2000/svg">
<path d="M100.122 0.5H0.121582V100.5H100.122V0.5Z" fill="#F7DF1E"/>
<path d="M67.2962 78.6254C69.3105 81.9143 71.9311 84.3318 76.566 84.3318C80.4597 84.3318 82.947 82.3857 82.947 79.6969C82.947 76.4746 80.3914 75.3334 76.1057 73.4588L73.7565 72.4508C66.9755 69.5619 62.4708 65.9429 62.4708 58.2921C62.4708 51.2445 67.8406 45.8794 76.2327 45.8794C82.2073 45.8794 86.5025 47.9588 89.5978 53.4032L82.2803 58.1016C80.6692 55.2127 78.9311 54.0746 76.2327 54.0746C73.4803 54.0746 71.7359 55.8207 71.7359 58.1016C71.7359 60.9207 73.4819 62.0619 77.5136 63.808L79.8628 64.8143C87.847 68.2381 92.3549 71.7286 92.3549 79.5762C92.3549 88.0365 85.7089 92.6715 76.7835 92.6715C68.0565 92.6715 62.4184 88.5127 59.6597 83.0619L67.2962 78.6254ZM34.1009 79.4397C35.5771 82.0588 36.92 84.273 40.1485 84.273C43.2358 84.273 45.1835 83.0651 45.1835 78.3683V46.4159H54.5803V78.4953C54.5803 88.2254 48.8755 92.654 40.5485 92.654C33.0247 92.654 28.6676 88.7603 26.4517 84.0707L34.1009 79.4397Z" fill="black"/>
</svg>
