<svg width="101" height="101" viewBox="0 0 101 101" fill="none" xmlns="http://www.w3.org/2000/svg">
<path d="M50.3482 59.3163C55.2173 59.3163 59.1644 55.3691 59.1644 50.5001C59.1644 45.631 55.2173 41.6838 50.3482 41.6838C45.4791 41.6838 41.532 45.631 41.532 50.5001C41.532 55.3691 45.4791 59.3163 50.3482 59.3163Z" fill="#61DAFB"/>
<path d="M50.3482 68.5626C76.4749 68.5626 97.6548 60.4757 97.6548 50.5C97.6548 40.5244 76.4749 32.4375 50.3482 32.4375C24.2215 32.4375 3.04156 40.5244 3.04156 50.5C3.04156 60.4757 24.2215 68.5626 50.3482 68.5626Z" stroke="#61DAFB" stroke-width="5"/>
<path d="M34.7055 59.5313C47.7689 82.1577 65.3622 96.4566 74.0014 91.4687C82.6406 86.4809 79.0541 64.0951 65.9907 41.4687C52.9273 18.8423 35.334 4.54343 26.6948 9.53126C18.0556 14.5191 21.6421 36.9049 34.7055 59.5313Z" stroke="#61DAFB" stroke-width="5"/>
<path d="M34.7055 41.4687C21.6422 64.0951 18.0556 86.4809 26.6948 91.4687C35.334 96.4565 52.9274 82.1576 65.9907 59.5312C79.0541 36.9048 82.6406 14.5191 74.0014 9.53124C65.3623 4.54341 47.7689 18.8423 34.7055 41.4687Z" stroke="#61DAFB" stroke-width="5"/>
</svg>
