<svg width="101" height="61" viewBox="0 0 101 61" fill="none" xmlns="http://www.w3.org/2000/svg">
<path d="M50.0682 0.508179C36.7345 0.508179 28.4014 7.17317 25.0676 20.5019C30.0682 13.8369 35.9017 11.3385 42.5679 13.0041C46.3719 13.9544 49.0904 16.7142 52.1003 19.7679C57.0021 24.7422 62.6755 30.4994 75.0689 30.4994C88.4014 30.4994 96.7357 23.8344 100.068 10.5044C95.0689 17.1694 89.2354 19.6691 82.5679 18.0035C78.7653 17.0531 76.0467 14.2933 73.0368 11.2397C68.135 6.26533 62.4604 0.508179 50.0682 0.508179ZM25.0676 30.4994C11.7351 30.4994 3.40074 37.1644 0.0682373 50.4943C5.06761 43.8293 10.9011 41.3297 17.5686 42.9965C21.3712 43.9481 24.0897 46.7067 27.0996 49.7591C32.0015 54.7334 37.6761 60.4918 50.0682 60.4918C63.402 60.4918 71.7351 53.8268 75.0689 40.4969C70.0682 47.1618 64.2348 49.6615 57.5686 47.9947C53.7646 47.0456 51.0461 44.2845 48.0362 41.2321C43.1344 36.2578 37.461 30.4994 25.0676 30.4994Z" fill="#06B6D4"/>
</svg>
