<svg width="101" height="101" viewBox="0 0 101 101" fill="none" xmlns="http://www.w3.org/2000/svg">
<path d="M0.628174 0.5H100.628V100.5H0.628174V0.5Z" fill="#017ACB"/>
<path d="M48.6438 37.5312H53.4407V45.8125H40.472V82.6562L40.1282 82.75C39.6595 82.875 33.4876 82.875 32.1594 82.7344L31.0969 82.6406V45.8125H18.1282V37.5312L22.2376 37.4844C24.4876 37.4531 30.2688 37.4531 35.0813 37.4844C39.8938 37.5156 45.9876 37.5312 48.6438 37.5312ZM85.2533 78.75C83.347 80.7656 81.3002 81.8906 77.8939 82.8125C76.4095 83.2187 76.1595 83.2344 72.8158 83.2188C69.472 83.2031 69.2064 83.2031 67.5814 82.7812C63.3783 81.7031 59.9876 79.5937 57.6751 76.6094C57.0189 75.7656 55.9407 74.0156 55.9407 73.7969C55.9407 73.7344 56.097 73.5937 56.3001 73.5C56.5032 73.4062 56.9251 73.1406 57.2689 72.9375C57.6126 72.7344 58.2376 72.3594 58.6595 72.1406C59.0814 71.9219 60.3001 71.2031 61.3626 70.5625C62.4251 69.9219 63.3939 69.4062 63.5033 69.4062C63.6126 69.4062 63.8158 69.625 63.972 69.8906C64.9095 71.4687 67.097 73.4844 68.6439 74.1719C69.597 74.5781 71.7064 75.0312 72.722 75.0312C73.6595 75.0312 75.3783 74.625 76.3001 74.2031C77.2845 73.75 77.7845 73.2969 78.3783 72.3906C78.7845 71.75 78.8314 71.5781 78.8158 70.3594C78.8158 69.2344 78.7533 68.9219 78.4408 68.4062C77.5658 66.9687 76.3783 66.2187 71.5658 64.0937C66.597 61.8906 64.3626 60.5781 62.5501 58.8125C61.2064 57.5 60.9408 57.1406 60.097 55.5C59.0032 53.3906 58.8626 52.7031 58.847 49.5625C58.8314 47.3594 58.8782 46.6406 59.1126 45.8906C59.4407 44.7656 60.5032 42.5937 60.9876 42.0469C61.9876 40.875 62.347 40.5156 63.0501 39.9375C65.1751 38.1875 68.4876 37.0312 71.6595 36.9219C72.0189 36.9219 73.2064 36.9844 74.3158 37.0625C77.5033 37.3281 79.6752 38.1094 81.7689 39.7812C83.347 41.0312 85.7377 43.9688 85.5033 44.3594C85.347 44.5938 79.1127 48.75 78.7064 48.875C78.4564 48.9531 78.2845 48.8594 77.9408 48.4531C75.8158 45.9062 74.9564 45.3594 72.8939 45.2344C71.4251 45.1406 70.6439 45.3125 69.6595 45.9687C68.6283 46.6562 68.1283 47.7031 68.1283 49.1562C68.1439 51.2812 68.9564 52.2812 71.9564 53.7656C73.8939 54.7187 75.5501 55.5 75.6751 55.5C75.8626 55.5 79.8783 57.5 80.9252 58.125C85.8002 60.9844 87.7845 63.9219 88.3002 68.9844C88.6752 72.7969 87.597 76.2812 85.2533 78.75Z" fill="white"/>
</svg>
